<?xml version="1.0" standalone="no"?>
<!DOCTYPE svg PUBLIC "-//W3C//DTD SVG 20010904//EN"
 "http://www.w3.org/TR/2001/REC-SVG-20010904/DTD/svg10.dtd">
<svg version="1.0" xmlns="http://www.w3.org/2000/svg"
 width="200.000000pt" height="200.000000pt" viewBox="0 0 200.000000 200.000000"
 preserveAspectRatio="xMidYMid meet">

<g transform="translate(0.000000,200.000000) scale(0.100000,-0.100000)"
fill="#000000" stroke="none">
<path d="M730 1170 l0 -270 265 0 265 0 0 270 0 270 -265 0 -265 0 0 -270z
m245 65 c0 -17 -6 -19 -42 -17 -48 4 -59 -14 -15 -24 70 -16 95 -66 50 -98
-45 -32 -131 -14 -121 24 4 15 9 17 23 10 25 -13 70 -13 70 0 0 6 -8 13 -17
16 -78 25 -95 49 -67 92 13 20 22 23 67 20 44 -3 52 -6 52 -23z m85 0 c0 -8 7
-15 15 -15 8 0 15 -9 15 -20 0 -11 -7 -20 -15 -20 -25 0 -20 -56 6 -63 28 -7
19 -31 -13 -35 -34 -4 -58 22 -58 64 0 19 -4 34 -10 34 -5 0 -10 9 -10 20 0
11 5 20 10 20 6 0 10 7 10 15 0 9 9 15 25 15 16 0 25 -6 25 -15z"/>
<path d="M1030 765 c0 -60 3 -75 15 -75 12 0 15 15 15 75 0 60 -3 75 -15 75
-12 0 -15 -15 -15 -75z"/>
<path d="M1340 765 c0 -57 3 -75 14 -75 7 0 16 10 19 22 l6 22 24 -22 c41 -39
64 -26 25 15 -21 22 -21 23 -3 43 15 17 16 20 3 20 -9 0 -21 -7 -28 -15 -21
-25 -30 -17 -30 25 0 29 -4 40 -15 40 -12 0 -15 -15 -15 -75z"/>
<path d="M556 815 c-9 -9 -16 -20 -16 -25 0 -15 31 -40 49 -40 24 0 46 -26 31
-35 -6 -3 -24 -5 -40 -3 -37 3 -41 -16 -4 -20 48 -6 74 6 74 34 0 21 -8 29
-40 41 -46 18 -48 38 -4 39 43 1 45 18 3 22 -24 2 -42 -3 -53 -13z"/>
<path d="M1080 821 c0 -5 10 -11 23 -13 19 -3 22 -10 25 -60 2 -32 7 -58 12
-58 5 0 10 26 12 58 3 50 6 57 26 60 46 7 20 22 -38 22 -33 0 -60 -4 -60 -9z"/>
<path d="M698 789 c-22 -12 -24 -71 -4 -88 17 -14 82 -11 78 3 -1 6 -16 10
-32 10 -46 1 -40 21 7 24 34 3 41 6 36 20 -13 37 -51 51 -85 31z m46 -15 c27
-10 18 -24 -15 -24 -27 0 -30 2 -19 15 14 17 13 17 34 9z"/>
<path d="M838 793 c-26 -4 -28 -8 -28 -54 0 -37 4 -49 15 -49 11 0 15 11 15
36 0 27 5 37 20 41 18 5 30 35 13 32 -5 -1 -20 -4 -35 -6z"/>
<path d="M916 791 c-14 -5 -16 -10 -8 -15 7 -4 17 -4 22 -1 6 4 18 1 27 -7 14
-11 12 -14 -18 -18 -28 -4 -34 -9 -34 -30 0 -23 4 -25 43 -26 l42 -2 0 44 c0
33 -5 46 -19 54 -22 11 -28 12 -55 1z m48 -60 c3 -5 0 -13 -7 -19 -15 -13 -42
1 -33 17 9 13 33 15 40 2z"/>
<path d="M1220 780 c-24 -24 -25 -38 -4 -68 17 -25 84 -32 84 -9 0 7 -12 12
-27 12 -43 0 -43 20 0 23 29 3 37 7 37 22 0 20 -27 40 -54 40 -9 0 -25 -9 -36
-20z m60 -15 c11 -13 8 -15 -20 -15 -28 0 -31 2 -20 15 7 8 16 15 20 15 4 0
13 -7 20 -15z"/>
</g>
</svg>
