<?xml version="1.0" standalone="no"?>
<!DOCTYPE svg PUBLIC "-//W3C//DTD SVG 20010904//EN"
 "http://www.w3.org/TR/2001/REC-SVG-20010904/DTD/svg10.dtd">
<svg version="1.0" xmlns="http://www.w3.org/2000/svg"
 width="840.000000pt" height="453.000000pt" viewBox="0 0 840.000000 453.000000"
 preserveAspectRatio="xMidYMid meet">

<g transform="translate(0.000000,453.000000) scale(0.100000,-0.100000)"
fill="#000000" stroke="none">
<path d="M240 4281 l0 -101 35 0 c42 0 62 31 50 77 -4 15 -8 48 -9 73 -1 45
-1 45 -38 48 l-38 3 0 -100z m55 43 c0 -19 -5 -29 -15 -29 -16 0 -25 28 -16
51 10 25 31 10 31 -22z m3 -86 c-2 -21 -8 -33 -18 -33 -10 0 -16 12 -18 33 -3
27 0 32 18 32 18 0 21 -5 18 -32z"/>
<path d="M382 4289 c3 -101 13 -117 61 -105 27 6 27 7 27 101 0 78 -3 95 -15
95 -12 0 -15 -17 -15 -90 0 -73 -3 -90 -15 -90 -12 0 -15 17 -15 90 0 74 -3
90 -15 90 -13 0 -15 -15 -13 -91z"/>
<path d="M537 4373 c-4 -3 -7 -48 -7 -100 0 -76 3 -93 15 -93 12 0 15 18 15
100 0 92 -5 112 -23 93z"/>
<path d="M610 4280 l0 -100 40 0 c22 0 40 5 40 10 0 6 -11 10 -25 10 -25 0
-25 1 -25 90 0 73 -3 90 -15 90 -12 0 -15 -18 -15 -100z"/>
<path d="M730 4280 l0 -100 40 0 c49 0 60 20 60 106 0 76 -11 94 -60 94 l-40
0 0 -100z m68 20 c4 -67 -4 -100 -23 -100 -12 0 -15 16 -15 81 0 71 2 80 18
77 13 -2 18 -15 20 -58z"/>
<path d="M7776 4284 c-10 -25 -7 -74 4 -74 6 0 11 10 12 23 2 36 3 41 11 55 5
7 3 12 -6 12 -8 0 -18 -7 -21 -16z"/>
<path d="M8122 4291 c-10 -6 -11 -19 -6 -47 4 -21 9 -33 11 -26 3 6 11 12 18
12 21 0 35 32 24 53 -11 19 -27 21 -47 8z m38 -20 c0 -28 -20 -37 -21 -9 0 22
-1 22 -9 3 -6 -15 -9 -16 -9 -4 -1 19 8 29 26 29 7 0 13 -9 13 -19z"/>
<path d="M1710 4243 c0 -21 4 -33 8 -28 4 6 16 15 27 21 29 16 25 38 -7 42
-26 3 -28 1 -28 -35z m40 17 c0 -5 -7 -10 -15 -10 -8 0 -15 5 -15 10 0 6 7 10
15 10 8 0 15 -4 15 -10z"/>
<path d="M3130 4265 c-25 -31 13 -76 48 -55 14 8 12 9 -11 10 -24 0 -28 4 -25
23 2 16 9 21 26 20 13 -2 21 1 17 7 -9 15 -41 12 -55 -5z"/>
<path d="M3273 4245 c0 -22 2 -30 4 -17 2 12 2 30 0 40 -3 9 -5 -1 -4 -23z"/>
<path d="M4547 4273 c-14 -13 -7 -52 11 -61 19 -10 42 -5 42 9 0 4 -7 6 -16 2
-19 -7 -35 14 -27 34 3 8 14 13 24 10 11 -3 19 -1 19 4 0 10 -43 12 -53 2z"/>
<path d="M2026 4262 c-3 -6 -15 -8 -25 -5 -10 3 -22 0 -26 -7 -5 -8 -10 -8
-21 1 -17 14 -44 5 -44 -15 0 -19 36 -40 45 -27 3 5 -3 12 -12 14 -15 4 -14 5
3 6 12 0 27 -5 34 -13 6 -8 19 -12 27 -9 15 6 15 7 -1 13 -25 9 -25 23 2 25
15 1 22 -4 22 -16 0 -10 4 -20 9 -23 5 -3 8 8 6 24 -2 34 -10 46 -19 32z"/>
<path d="M3298 4265 c-7 -7 3 -55 11 -55 8 0 7 47 -1 55 -2 3 -7 3 -10 0z"/>
<path d="M4748 4265 c-7 -7 2 -54 12 -60 4 -3 7 8 6 24 -1 31 -9 45 -18 36z"/>
<path d="M4898 4265 c-7 -7 2 -54 12 -60 4 -3 7 9 5 25 -2 32 -8 44 -17 35z"/>
<path d="M1781 4233 c0 -16 3 -22 6 -13 3 8 10 21 16 28 7 8 5 12 -7 12 -11 0
-16 -8 -15 -27z"/>
<path d="M1827 4254 c-12 -12 -8 -42 6 -47 21 -8 39 8 35 29 -3 19 -29 30 -41
18z m33 -25 c0 -5 -7 -9 -15 -9 -15 0 -20 12 -9 23 8 8 24 -1 24 -14z"/>
<path d="M1891 4235 c0 -17 -6 -36 -13 -43 -9 -9 -9 -12 0 -12 17 0 24 22 19
57 l-4 28 -2 -30z"/>
<path d="M2067 4253 c-12 -12 -7 -23 11 -24 15 0 15 -1 -2 -8 -14 -5 -16 -10
-8 -15 18 -11 30 1 30 29 0 24 -17 33 -31 18z"/>
<path d="M3200 4237 c0 -22 5 -27 25 -27 21 0 25 4 24 28 -2 24 -2 24 -6 4 -4
-22 -28 -26 -28 -4 0 5 -3 14 -7 18 -5 4 -8 -5 -8 -19z"/>
<path d="M3331 4238 c-1 -23 3 -28 24 -28 21 0 25 4 24 28 -2 23 -2 24 -6 5
-2 -13 -9 -23 -14 -23 -5 0 -14 10 -19 23 -8 21 -9 21 -9 -5z"/>
<path d="M3401 4233 c0 -16 3 -22 6 -13 3 8 10 21 16 28 7 8 5 12 -7 12 -11 0
-16 -8 -15 -27z"/>
<path d="M3441 4246 c-9 -11 -8 -18 4 -30 9 -9 22 -13 28 -9 7 4 4 9 -9 14
-18 7 -17 8 3 8 16 1 21 6 17 16 -8 19 -28 19 -43 1z"/>
<path d="M4621 4246 c-9 -11 -8 -18 5 -31 15 -15 19 -15 32 -1 17 17 10 46
-11 46 -8 0 -20 -6 -26 -14z m39 -17 c0 -5 -7 -9 -15 -9 -15 0 -20 12 -9 23 8
8 24 -1 24 -14z"/>
<path d="M4680 4235 c0 -31 17 -33 23 -2 4 22 4 22 15 -3 l11 -25 0 28 c1 22
-3 27 -24 27 -20 0 -25 -5 -25 -25z"/>
<path d="M4786 4245 c-11 -28 -7 -35 20 -35 21 0 25 4 22 22 -4 27 -33 36 -42
13z"/>
<path d="M4843 4244 c-8 -22 18 -46 37 -34 12 8 10 10 -8 10 -15 0 -22 5 -19
13 2 6 10 11 16 10 6 -2 11 2 11 7 0 16 -30 11 -37 -6z"/>
<path d="M241 4104 c0 -11 3 -14 6 -6 3 7 2 16 -1 19 -3 4 -6 -2 -5 -13z"/>
<path d="M280 4112 c0 -12 19 -26 26 -19 2 2 -2 10 -11 17 -9 8 -15 8 -15 2z"/>
<path d="M370 4106 c0 -8 4 -17 9 -20 5 -4 7 3 4 14 -6 23 -13 26 -13 6z"/>
<path d="M416 4107 c3 -10 9 -15 12 -12 3 3 0 11 -7 18 -10 9 -11 8 -5 -6z"/>
<path d="M441 4104 c0 -11 3 -14 6 -6 3 7 2 16 -1 19 -3 4 -6 -2 -5 -13z"/>
<path d="M470 4111 c0 -5 7 -12 16 -15 14 -5 15 -4 4 9 -14 17 -20 19 -20 6z"/>
<path d="M572 4100 c0 -14 2 -19 5 -12 2 6 2 18 0 25 -3 6 -5 1 -5 -13z"/>
<path d="M621 4104 c-1 -27 25 -27 27 0 1 15 -1 17 -7 7 -7 -11 -9 -11 -14 0
-3 9 -6 6 -6 -7z"/>
<path d="M672 4100 c0 -14 2 -19 5 -12 2 6 2 18 0 25 -3 6 -5 1 -5 -13z"/>
<path d="M736 4107 c3 -10 9 -15 12 -12 3 3 0 11 -7 18 -10 9 -11 8 -5 -6z"/>
<path d="M780 4111 c0 -6 4 -13 10 -16 6 -3 7 1 4 9 -7 18 -14 21 -14 7z"/>
<path d="M6200 1940 l0 -1940 1100 0 1100 0 0 1940 0 1940 -1100 0 -1100 0 0
-1940z m389 1173 c10 -17 10 -17 11 0 0 9 7 17 16 17 11 0 14 -5 10 -16 -3 -9
-6 -29 -6 -45 0 -33 -19 -39 -27 -9 -3 11 -10 20 -15 20 -5 0 -6 -9 -3 -20 4
-13 2 -20 -7 -20 -9 0 -13 14 -13 45 0 47 15 60 34 28z m349 -30 c3 -35 0 -43
-14 -43 -12 0 -15 7 -12 30 3 17 1 33 -4 36 -4 3 -8 -11 -8 -30 0 -24 -5 -36
-14 -36 -10 0 -14 10 -12 34 4 44 14 58 39 54 18 -2 23 -11 25 -45z m140 33
c-2 -5 7 -12 20 -17 15 -6 22 -17 22 -33 0 -25 -1 -25 -85 -23 -65 1 -85 5
-85 15 0 9 6 12 18 8 15 -6 15 -5 -1 8 -12 9 -15 16 -7 21 16 10 40 -2 40 -20
0 -8 8 -15 18 -15 13 0 14 2 3 9 -7 5 -10 14 -7 20 10 16 36 14 36 -3 0 -8 5
-18 12 -22 8 -5 9 3 5 30 -4 24 -2 36 4 34 6 -2 9 -7 7 -12z m-398 -31 c10
-12 9 -15 -6 -16 -18 0 -18 -1 1 -9 19 -7 19 -8 2 -15 -27 -11 -55 18 -37 39
16 20 24 20 40 1z m41 3 c0 -10 2 -10 6 0 4 10 8 10 19 1 8 -6 14 -7 14 -2 0
5 15 9 34 10 36 1 54 -25 33 -46 -14 -14 -37 -14 -37 -1 0 6 6 10 13 10 8 0 7
4 -3 10 -11 7 -20 4 -32 -13 -14 -18 -20 -19 -27 -8 -7 11 -9 11 -14 0 -6 -18
-22 -3 -32 29 -5 16 -2 22 9 22 9 0 16 -6 17 -12z m-110 -373 c5 24 7 20 7
-20 l1 -50 -24 30 c-24 28 -25 29 -25 8 0 -13 -4 -23 -10 -23 -11 0 -14 63 -3
74 4 4 17 -5 28 -21 l20 -27 6 29z m499 -18 c0 -35 -3 -43 -19 -44 -24 -2 -45
22 -37 42 8 22 23 19 22 -5 -1 -10 4 -19 9 -19 9 -1 11 6 14 52 2 36 11 15 11
-26z m360 -9 c1 -8 5 -7 14 5 22 28 25 19 9 -23 -9 -22 -20 -40 -25 -40 -5 0
-7 4 -3 10 8 13 -5 60 -17 60 -5 0 -7 -9 -3 -19 3 -11 1 -22 -5 -26 -6 -4 -10
11 -10 41 l0 48 20 -22 c11 -12 20 -27 20 -34z m134 36 c21 -21 20 -37 -3 -58
-28 -25 -55 -17 -59 17 -2 16 -1 35 2 43 7 19 41 18 60 -2z m209 -15 c23 3 27
-2 26 -31 l-1 -33 -7 30 c-8 38 -24 38 -32 -1 -5 -23 -7 -18 -7 21 0 30 2 43
7 32 4 -10 10 -18 14 -18z m-838 -24 c0 -19 -3 -35 -7 -35 -5 0 -8 9 -8 19 0
11 -3 26 -6 35 -4 10 -1 16 7 16 9 0 14 -12 14 -35z m262 23 c-2 -7 3 -18 11
-24 8 -6 12 -16 8 -22 -9 -14 -36 -16 -36 -2 0 5 7 7 15 4 8 -4 15 -1 15 5 0
6 -7 11 -15 11 -15 0 -21 21 -8 33 10 11 15 8 10 -5z m475 -23 c4 -36 -5 -47
-16 -19 -9 23 -7 54 3 54 5 0 11 -16 13 -35z m-1060 -1 c-4 -20 -1 -25 9 -22
8 3 14 14 13 26 0 12 3 19 8 16 14 -9 9 -42 -9 -48 -21 -8 -48 17 -40 38 10
26 25 18 19 -10z m60 -4 c-2 -16 -6 -30 -8 -30 -2 0 -4 14 -4 30 0 17 4 30 8
30 5 0 7 -13 4 -30z m67 -2 c-2 -31 -2 -31 -6 -5 -5 31 -23 37 -23 7 0 -11 -4
-20 -10 -20 -5 0 -10 11 -10 25 0 20 5 25 25 25 22 0 25 -4 24 -32z m28 -15
c-3 -10 -5 -2 -5 17 0 19 2 27 5 18 2 -10 2 -26 0 -35z m35 22 c-2 -14 -8 -25
-13 -25 -5 0 -9 11 -9 25 0 14 6 25 14 25 9 0 12 -8 8 -25z m38 -6 c0 -10 -4
-19 -10 -19 -5 0 -10 12 -10 26 0 14 4 23 10 19 6 -3 10 -15 10 -26z m60 0 c0
-26 -3 -30 -22 -27 -30 4 -37 38 -8 38 12 0 18 5 15 10 -3 6 -1 10 4 10 6 0
11 -14 11 -31z m65 21 c-3 -5 1 -10 10 -10 9 0 13 5 10 10 -3 6 -1 10 4 10 6
0 11 -7 11 -15 0 -8 -9 -15 -21 -15 -12 0 -17 -4 -14 -11 4 -6 14 -8 24 -4 11
4 13 3 5 -5 -17 -17 -44 -1 -44 26 0 13 5 24 11 24 5 0 7 -4 4 -10z m205 -20
c0 -24 -15 -33 -40 -25 -26 8 -26 25 0 32 11 3 20 10 20 15 0 5 5 6 10 3 6 -3
10 -15 10 -25z m106 9 c-1 -12 5 -24 13 -27 10 -3 13 2 9 22 -6 28 9 36 19 10
3 -8 -2 -23 -11 -32 -15 -15 -17 -15 -32 0 -9 9 -14 24 -11 32 9 22 14 20 13
-5z m66 -9 c-2 -16 -6 -30 -8 -30 -2 0 -4 14 -4 30 0 17 4 30 8 30 5 0 7 -13
4 -30z m38 0 c0 -16 -2 -30 -4 -30 -2 0 -6 14 -8 30 -3 17 -1 30 4 30 4 0 8
-13 8 -30z m233 -17 c6 2 14 14 18 28 6 22 7 21 8 -7 1 -26 -3 -31 -21 -30
-17 1 -23 7 -24 26 -1 23 -1 23 3 2 3 -13 10 -21 16 -19z m93 25 c-1 -13 4
-22 12 -20 6 1 12 -3 12 -9 0 -6 -8 -9 -17 -7 -18 3 -32 58 -15 58 5 0 8 -10
8 -22z m-1136 -159 c0 -38 -1 -40 -27 -37 -22 2 -28 8 -28 28 0 18 6 26 23 28
12 2 22 8 22 13 0 5 2 9 5 9 3 0 5 -18 5 -41z m87 -21 c-2 -13 -4 -3 -4 22 0
25 2 35 4 23 2 -13 2 -33 0 -45z m368 45 c-2 -10 -4 -29 -5 -43 -2 -23 -3 -23
-9 5 -8 32 -4 55 9 55 5 0 7 -8 5 -17z m650 0 c-2 -10 -4 -29 -5 -43 -2 -23
-3 -23 -9 5 -8 32 -4 55 9 55 5 0 7 -8 5 -17z m95 7 c0 -5 6 -10 14 -10 8 0
16 -13 18 -30 3 -16 1 -30 -4 -30 -4 0 -8 11 -8 25 0 14 -4 25 -10 25 -5 0
-10 -11 -10 -25 0 -14 -4 -25 -10 -25 -5 0 -10 18 -10 40 0 22 5 40 10 40 6 0
10 -4 10 -10z m-876 -40 c1 -16 -2 -30 -6 -30 -8 0 -10 7 -10 40 0 29 1 34 9
27 3 -4 7 -20 7 -37z m840 0 c1 -16 -2 -30 -5 -30 -8 0 -17 58 -11 65 9 9 15
-4 16 -35z m-1100 15 c4 -10 -1 -15 -14 -15 -25 0 -26 -17 -2 -23 12 -4 11 -5
-6 -6 -24 -1 -38 20 -28 44 3 8 14 15 25 15 10 0 21 -7 25 -15z m86 0 c10 -13
9 -15 -9 -15 -25 0 -28 -17 -3 -23 12 -4 11 -5 -6 -6 -24 -1 -38 20 -28 44 3
8 12 15 19 15 8 0 20 -7 27 -15z m70 -25 c0 -44 -21 -63 -43 -40 -10 10 -8 12
5 7 10 -3 20 -2 23 3 4 6 -3 10 -14 10 -15 0 -21 6 -21 23 0 28 7 37 32 37 14
0 18 -8 18 -40z m68 7 c3 -23 0 -27 -23 -27 -25 0 -28 11 -16 58 1 2 9 2 19 0
10 -2 18 -14 20 -31z m100 16 c2 -8 -5 -13 -17 -13 -28 0 -27 -17 2 -23 l22
-4 -23 -2 c-25 -1 -38 20 -28 45 7 18 37 15 44 -3z m127 -13 c0 -29 -32 -41
-41 -16 -9 24 4 48 23 44 12 -2 18 -12 18 -28z m37 0 c-2 -16 -8 -30 -13 -30
-10 0 -12 43 -2 53 14 14 19 6 15 -23z m102 14 c12 -31 6 -44 -18 -44 -26 0
-48 21 -28 28 6 2 8 10 5 18 -3 9 2 14 15 14 11 0 23 -7 26 -16z m74 -20 c-4
-43 -30 -67 -50 -45 -11 12 -10 13 4 8 10 -3 20 -2 23 2 2 5 -4 11 -15 14 -11
3 -20 14 -20 24 0 26 8 33 37 33 22 0 24 -4 21 -36z m60 19 c2 -8 -5 -13 -17
-13 -28 0 -27 -17 2 -23 l22 -4 -23 -2 c-25 -1 -38 20 -28 45 7 18 37 15 44
-3z m70 -15 c2 -16 -1 -28 -7 -28 -6 0 -11 11 -11 25 0 14 -4 25 -10 25 -5 0
-10 -11 -10 -25 0 -14 -4 -25 -10 -25 -11 0 -14 43 -3 54 17 17 48 0 51 -26z
m86 10 l7 -23 10 24 c5 13 12 22 14 19 7 -7 -22 -75 -36 -84 -8 -4 -9 -3 -5 5
4 6 4 25 1 42 -5 24 -11 29 -28 27 -31 -4 -34 -35 -5 -41 l23 -4 -23 -2 c-12
0 -25 6 -28 14 -10 26 4 45 35 45 21 0 30 -6 35 -22z m121 -8 c0 -18 -6 -26
-21 -28 -26 -4 -40 24 -23 45 18 21 44 11 44 -17z m233 13 c2 -8 -5 -13 -17
-13 -28 0 -27 -17 2 -23 l22 -4 -23 -2 c-25 -1 -38 20 -28 45 7 18 37 15 44
-3z m-1319 -166 c16 28 13 -4 -4 -37 -18 -35 -21 -36 -21 -12 0 9 -4 28 -8 42
-7 23 -6 24 8 7 14 -18 15 -18 25 0z m36 3 c-3 -5 1 -10 10 -10 9 0 13 5 9 11
-4 7 -1 10 6 7 26 -8 22 -28 -5 -28 -16 0 -24 -4 -20 -11 4 -6 14 -8 24 -4 13
5 14 4 3 -6 -10 -11 -15 -10 -28 3 -15 15 -14 48 1 48 4 0 3 -4 0 -10z m103
-26 c-4 -24 -42 -25 -46 -1 -2 10 3 17 12 17 9 0 16 5 16 12 0 9 3 9 11 1 6
-6 9 -19 7 -29z m34 11 c-2 -14 -8 -25 -13 -25 -5 0 -9 11 -9 25 0 14 6 25 14
25 9 0 12 -8 8 -25z m934 -607 c-3 -13 -5 -34 -6 -48 -2 -23 -3 -23 -9 5 -4
17 -4 38 1 48 12 24 19 21 14 -5z m-1126 -10 l9 -23 7 23 c9 29 18 28 31 -5
10 -25 11 -26 12 -6 1 12 6 25 11 28 13 8 13 -4 -1 -44 -12 -35 -29 -41 -29
-11 0 27 -16 25 -25 -2 -6 -22 -7 -22 -20 7 -15 31 -19 55 -10 55 3 0 10 -10
15 -22z m170 12 c0 -5 -4 -10 -10 -10 -5 0 -10 5 -10 10 0 6 5 10 10 10 6 0
10 -4 10 -10z m217 -52 c-2 -13 -4 -3 -4 22 0 25 2 35 4 23 2 -13 2 -33 0 -45z
m320 0 c-2 -13 -4 -3 -4 22 0 25 2 35 4 23 2 -13 2 -33 0 -45z m164 22 c5 0 9
5 9 10 0 6 5 10 12 10 9 0 9 -3 0 -12 -8 -8 -8 -16 0 -32 10 -19 10 -20 -6 -7
-15 13 -19 13 -27 0 -6 -9 -8 1 -7 31 0 25 3 35 5 23 2 -13 9 -23 14 -23z
m-734 3 c2 -6 -6 -13 -19 -15 l-23 -5 25 -11 c25 -11 25 -11 2 -11 -25 -1 -38
20 -28 45 7 17 37 16 43 -3z m67 9 c-7 -4 -14 -18 -17 -32 -4 -21 -4 -20 -6 8
-1 24 3 32 17 32 11 0 13 -3 6 -8z m63 -9 c2 -6 -6 -13 -19 -15 l-23 -5 25
-11 c25 -11 25 -11 2 -11 -25 -1 -38 20 -28 45 7 17 37 16 43 -3z m96 -9 c5
-27 -11 -41 -38 -30 -22 8 -18 27 7 34 21 5 21 6 2 13 -18 7 -18 8 2 8 16 1
23 -6 27 -25z m67 9 c0 9 5 17 10 17 14 0 12 -22 -5 -44 -17 -23 -21 -21 -30
19 -7 29 -7 29 8 10 15 -18 16 -18 17 -2z m44 -17 c-6 -25 -24 -37 -24 -16 0
13 23 50 28 46 1 -2 0 -15 -4 -30z m64 1 c3 -25 0 -28 -19 -25 -31 4 -36 28
-8 35 22 6 22 7 3 15 -18 8 -18 8 1 5 14 -1 21 -11 23 -30z m32 11 l9 -23 7
23 c3 12 10 22 15 22 5 0 2 -16 -6 -36 -8 -20 -15 -38 -15 -40 0 -2 -3 -4 -7
-4 -5 0 -8 10 -9 23 0 12 -4 30 -8 40 -5 9 -5 17 -2 17 4 0 11 -10 16 -22z
m71 13 c-11 -7 -10 -11 4 -19 22 -12 11 -32 -18 -31 -21 0 -21 1 -2 8 18 7 18
8 1 18 -21 12 -13 33 12 33 14 0 14 -2 3 -9z m127 -3 c10 -10 15 -10 21 1 13
20 46 9 49 -17 4 -27 -22 -40 -43 -22 -12 10 -18 10 -30 0 -19 -16 -45 -6 -45
18 0 33 25 43 48 20z m162 -18 c0 -16 -4 -30 -10 -30 -5 0 -10 14 -10 30 0 17
5 30 10 30 6 0 10 -13 10 -30z m59 -2 c-2 -31 -2 -31 -6 -5 -2 15 -10 27 -18
27 -8 0 -16 -12 -18 -27 -4 -26 -4 -26 -6 5 -1 28 2 32 24 32 22 0 25 -4 24
-32z m71 -8 c0 -37 -2 -40 -27 -39 l-28 1 25 8 c23 7 23 8 3 9 -22 1 -40 32
-28 51 3 5 17 10 31 10 21 0 24 -4 24 -40z m130 25 c10 -12 10 -18 0 -30 -25
-30 -61 -7 -46 30 3 8 12 15 19 15 8 0 20 -7 27 -15z m32 -15 c-2 -16 -6 -30
-8 -30 -2 0 -4 14 -4 30 0 17 4 30 8 30 5 0 7 -13 4 -30z m-1122 -150 c0 -22
-4 -40 -10 -40 -5 0 -10 18 -10 40 0 22 5 40 10 40 6 0 10 -18 10 -40z m292
-4 c-4 -36 -20 -50 -41 -36 -19 11 -10 55 12 54 9 -1 17 5 17 13 0 8 4 12 8 9
4 -3 6 -21 4 -40z m315 -18 c-2 -13 -4 -3 -4 22 0 25 2 35 4 23 2 -13 2 -33 0
-45z m-703 8 c1 -25 -2 -32 -11 -24 -9 7 -11 41 -4 67 4 15 14 -14 15 -43z
m251 -1 c2 -40 -12 -35 -15 5 -3 34 -1 44 6 37 4 -3 8 -22 9 -42z m580 0 c2
-40 -12 -35 -15 5 -3 34 -1 44 6 37 4 -3 8 -22 9 -42z m215 10 c0 -19 -4 -35
-8 -35 -6 0 -7 21 -3 63 1 4 3 7 6 7 3 0 5 -16 5 -35z m-982 -6 c3 -26 -19
-46 -39 -33 -17 10 -9 34 12 34 11 0 18 4 14 10 -3 5 -13 6 -22 3 -11 -4 -14
-3 -9 6 13 20 41 8 44 -20z m76 25 c23 -9 20 -34 -5 -34 -11 0 -18 -4 -14 -10
3 -5 13 -7 23 -4 14 5 14 4 3 -4 -21 -15 -41 -3 -41 22 0 33 8 40 34 30z m72
-30 l2 -29 -5 28 c-5 33 -25 31 -34 -4 l-7 -24 -1 27 c-1 25 13 39 34 34 6 -1
11 -16 11 -32z m104 20 c11 -13 10 -16 -8 -21 -12 -3 -22 -10 -22 -15 0 -6 8
-7 18 -3 13 5 14 4 5 -6 -10 -10 -15 -9 -28 1 -18 15 -19 32 -3 48 16 16 23
15 38 -4z m168 -17 c3 -24 -1 -29 -25 -26 -4 0 -10 -8 -14 -18 -5 -12 -8 -4
-8 24 -1 39 10 55 34 49 6 -1 11 -15 13 -29z m61 20 c13 -16 5 -27 -21 -27
-11 0 -16 -5 -13 -11 4 -6 14 -8 24 -4 12 5 13 4 4 -6 -10 -10 -15 -9 -28 1
-18 15 -19 32 -3 48 15 15 23 15 37 -1z m55 7 c20 -8 21 -50 1 -58 -23 -9 -47
22 -35 45 12 21 12 21 34 13z m80 -17 c8 -12 7 -21 -5 -32 -14 -15 -15 -13
-11 16 4 24 1 30 -9 27 -8 -3 -13 -15 -11 -27 1 -13 -2 -30 -8 -39 -7 -13 -9
-7 -10 25 0 52 29 69 54 30z m85 10 c13 -16 5 -27 -21 -27 -11 0 -16 -5 -13
-11 4 -6 14 -8 24 -4 12 5 13 4 4 -6 -10 -10 -15 -9 -28 1 -18 15 -20 46 -2
53 20 9 24 8 36 -6z m132 -9 c9 -18 8 -24 -6 -34 -9 -7 -23 -10 -31 -7 -17 6
-19 50 -1 56 21 9 26 7 38 -15z m117 -7 c4 -26 -13 -42 -35 -34 -14 5 -18 45
-6 57 14 14 38 0 41 -23z m102 -12 c0 -30 -17 -22 -22 11 -4 24 -2 27 9 19 7
-7 13 -20 13 -30z m74 35 c20 -8 21 -50 1 -58 -23 -9 -47 22 -35 45 12 21 12
21 34 13z m118 -6 c-5 -7 -12 -22 -15 -33 -4 -16 -5 -14 -6 7 -1 22 7 33 28
37 2 1 -1 -5 -7 -11z m-354 -35 c-2 -20 -8 -38 -13 -40 -7 -2 -9 12 -7 37 2
22 8 40 14 40 5 0 8 -17 6 -37z m122 12 c0 -14 -4 -25 -10 -25 -5 0 -10 11
-10 25 0 14 5 25 10 25 6 0 10 -11 10 -25z m162 -4 c3 -21 1 -28 -9 -24 -14 6
-18 53 -4 53 5 0 11 -13 13 -29z m38 10 c0 -11 -4 -23 -10 -26 -6 -4 -10 5
-10 19 0 14 5 26 10 26 6 0 10 -9 10 -19z m-1276 -169 c1 -18 -2 -32 -6 -32
-5 0 -8 3 -9 8 0 4 -2 20 -4 35 -2 17 0 27 7 25 6 -2 12 -18 12 -36z m64 11
c2 -8 -5 -13 -17 -13 -28 0 -27 -17 2 -23 l22 -4 -23 -2 c-25 -1 -38 20 -28
45 7 18 37 15 44 -3z m62 -14 c0 -26 -3 -30 -22 -27 -30 4 -35 28 -7 35 22 6
22 7 3 14 -18 7 -17 8 4 8 18 1 22 -4 22 -30z m99 -1 c-2 -31 -2 -31 -6 -5 -5
31 -23 37 -23 8 0 -11 -4 -23 -10 -26 -6 -4 -10 5 -10 19 0 35 -18 33 -23 -1
-4 -26 -4 -26 -6 5 -1 31 0 32 39 32 39 0 40 -1 39 -32z m1428 -1165 c-20 -2
-52 -2 -70 0 -17 2 0 4 38 4 39 0 53 -2 32 -4z m-1257 -38 c16 -19 29 -19 52
2 30 27 34 5 5 -25 l-27 -27 -32 33 c-18 17 -28 32 -22 32 7 0 17 -7 24 -15z
m1290 -5 c0 -6 -29 -10 -66 -10 -41 0 -63 4 -59 10 3 6 33 10 66 10 33 0 59
-4 59 -10z m0 -50 c0 -6 -28 -10 -65 -10 -37 0 -65 4 -65 10 0 6 28 10 65 10
37 0 65 -4 65 -10z"/>
<path d="M7085 3070 c-3 -5 -1 -10 4 -10 6 0 11 5 11 10 0 6 -2 10 -4 10 -3 0
-8 -4 -11 -10z"/>
<path d="M7560 2695 c0 -29 3 -36 18 -33 11 2 17 13 17 33 0 20 -6 31 -17 33
-15 3 -18 -4 -18 -33z"/>
<path d="M6900 2670 c0 -5 4 -10 9 -10 6 0 13 5 16 10 3 6 -1 10 -9 10 -9 0
-16 -4 -16 -10z"/>
<path d="M7170 2670 c0 -5 5 -10 10 -10 6 0 10 5 10 10 0 6 -4 10 -10 10 -5 0
-10 -4 -10 -10z"/>
<path d="M6566 2525 c-3 -9 1 -18 10 -22 19 -7 28 2 21 22 -8 19 -23 19 -31 0z"/>
<path d="M6790 2520 c0 -11 7 -20 15 -20 8 0 15 9 15 20 0 11 -7 20 -15 20 -8
0 -15 -9 -15 -20z"/>
<path d="M6865 2510 c-3 -5 1 -10 10 -10 9 0 13 5 10 10 -3 6 -8 10 -10 10 -2
0 -7 -4 -10 -10z"/>
<path d="M6968 2533 c7 -3 16 -2 19 1 4 3 -2 6 -13 5 -11 0 -14 -3 -6 -6z"/>
<path d="M7090 2520 c0 -11 7 -20 15 -20 8 0 15 9 15 20 0 11 -7 20 -15 20 -8
0 -15 -9 -15 -20z"/>
<path d="M7233 2520 c-1 -11 2 -20 8 -20 5 0 9 9 9 20 0 11 -4 20 -8 20 -4 0
-8 -9 -9 -20z"/>
<path d="M7297 2533 c-13 -12 -7 -33 8 -33 8 0 15 9 15 20 0 20 -11 26 -23 13z"/>
<path d="M7368 2533 c7 -3 16 -2 19 1 4 3 -2 6 -13 5 -11 0 -14 -3 -6 -6z"/>
<path d="M7640 2521 c0 -12 6 -21 16 -21 9 0 14 7 12 17 -5 25 -28 28 -28 4z"/>
<path d="M7878 2533 c7 -3 16 -2 19 1 4 3 -2 6 -13 5 -11 0 -14 -3 -6 -6z"/>
<path d="M6690 2340 c0 -5 5 -10 10 -10 6 0 10 5 10 10 0 6 -4 10 -10 10 -5 0
-10 -4 -10 -10z"/>
<path d="M6678 1723 c7 -3 16 -2 19 1 4 3 -2 6 -13 5 -11 0 -14 -3 -6 -6z"/>
<path d="M6808 1723 c7 -3 16 -2 19 1 4 3 -2 6 -13 5 -11 0 -14 -3 -6 -6z"/>
<path d="M6900 1700 c0 -5 5 -10 10 -10 6 0 10 5 10 10 0 6 -4 10 -10 10 -5 0
-10 -4 -10 -10z"/>
<path d="M7075 1700 c-3 -5 1 -10 10 -10 9 0 13 5 10 10 -3 6 -8 10 -10 10 -2
0 -7 -4 -10 -10z"/>
<path d="M7302 1713 c5 -25 28 -28 28 -4 0 12 -6 21 -16 21 -9 0 -14 -7 -12
-17z"/>
<path d="M7370 1710 c0 -13 5 -20 13 -17 6 2 12 10 12 17 0 7 -6 15 -12 18 -8
2 -13 -5 -13 -18z"/>
<path d="M7590 1710 c0 -11 7 -20 15 -20 8 0 15 9 15 20 0 11 -7 20 -15 20 -8
0 -15 -9 -15 -20z"/>
<path d="M7720 1710 c0 -11 7 -20 15 -20 8 0 15 9 15 20 0 11 -7 20 -15 20 -8
0 -15 -9 -15 -20z"/>
<path d="M6924 1556 c-4 -10 -2 -22 4 -28 8 -8 13 -7 18 6 4 10 2 22 -4 28 -8
8 -13 7 -18 -6z"/>
<path d="M6605 1530 c4 -6 11 -8 16 -5 14 9 11 15 -7 15 -8 0 -12 -5 -9 -10z"/>
<path d="M6695 1560 c-3 -5 1 -10 10 -10 9 0 13 5 10 10 -3 6 -8 10 -10 10 -2
0 -7 -4 -10 -10z"/>
<path d="M6860 1560 c0 -5 5 -10 10 -10 6 0 10 5 10 10 0 6 -4 10 -10 10 -5 0
-10 -4 -10 -10z"/>
<path d="M7024 1556 c-4 -10 -2 -22 4 -28 8 -8 13 -7 18 6 4 10 2 22 -4 28 -8
8 -13 7 -18 -6z"/>
<path d="M7090 1560 c0 -5 5 -10 10 -10 6 0 10 5 10 10 0 6 -4 10 -10 10 -5 0
-10 -4 -10 -10z"/>
<path d="M7154 1556 c-4 -10 -2 -22 4 -28 8 -8 13 -7 18 6 4 10 2 22 -4 28 -8
8 -13 7 -18 -6z"/>
<path d="M7305 1560 c-3 -5 1 -10 9 -10 9 0 16 5 16 10 0 6 -4 10 -9 10 -6 0
-13 -4 -16 -10z"/>
<path d="M7434 1556 c-4 -10 -2 -22 4 -28 8 -8 13 -7 18 6 4 10 2 22 -4 28 -8
8 -13 7 -18 -6z"/>
<path d="M7554 1556 c-4 -10 -2 -22 4 -28 8 -8 13 -7 18 6 4 10 2 22 -4 28 -8
8 -13 7 -18 -6z"/>
<path d="M7744 1556 c-4 -10 -2 -22 4 -28 8 -8 13 -7 18 6 4 10 2 22 -4 28 -8
8 -13 7 -18 -6z"/>
<path d="M6608 1393 c7 -3 16 -2 19 1 4 3 -2 6 -13 5 -11 0 -14 -3 -6 -6z"/>
<path d="M6670 1370 c0 -5 5 -10 10 -10 6 0 10 5 10 10 0 6 -4 10 -10 10 -5 0
-10 -4 -10 -10z"/>
<path d="M5125 3115 c-5 -2 -161 -47 -345 -100 -184 -54 -351 -105 -370 -115
-37 -19 -66 -48 -93 -90 -9 -14 -64 -230 -122 -480 -58 -250 -153 -656 -211
-902 -57 -246 -104 -462 -104 -480 0 -26 11 -43 60 -90 50 -49 65 -58 95 -58
58 0 754 149 794 170 67 36 107 82 130 150 15 43 136 714 301 1660 16 96 30
187 30 202 0 19 -12 41 -36 66 -20 21 -33 29 -30 19 3 -11 2 -16 -4 -12 -6 3
-10 15 -10 25 0 29 -47 48 -85 35z m1 -262 c-5 -17 -54 -281 -215 -1152 -33
-178 -62 -325 -64 -327 -6 -6 -229 -55 -262 -58 -17 -2 -46 -8 -65 -14 -19 -7
-134 -34 -255 -61 -121 -27 -233 -53 -249 -57 -23 -5 -28 -4 -24 7 3 8 79 334
168 724 89 391 166 714 170 718 4 5 106 37 226 72 121 35 293 86 384 113 190
58 193 58 186 35z m-311 -1773 c-10 -11 -21 -17 -24 -14 -3 3 3 12 13 20 28
20 32 17 11 -6z m-855 -200 c0 -5 -7 -7 -15 -4 -8 4 -15 8 -15 10 0 2 7 4 15
4 8 0 15 -4 15 -10z"/>
<path d="M4685 2690 c3 -5 8 -10 11 -10 2 0 4 5 4 10 0 6 -5 10 -11 10 -5 0
-7 -4 -4 -10z"/>
<path d="M4740 2688 c0 -11 28 -10 35 1 3 6 -4 9 -15 8 -11 -1 -20 -5 -20 -9z"/>
<path d="M4610 2660 c0 -11 4 -20 8 -20 4 0 8 9 9 20 1 11 -2 20 -8 20 -5 0
-9 -9 -9 -20z"/>
<path d="M4495 1991 c-6 -4 -44 -20 -85 -35 l-75 -27 -26 -70 -27 -69 23 0
c57 0 342 75 438 115 50 21 47 29 -10 22 -68 -8 -139 10 -178 44 -35 31 -45
34 -60 20z"/>
<path d="M4645 1824 c-49 -18 -85 -33 -78 -33 16 -1 164 47 183 59 28 18 -11
9 -105 -26z"/>
<path d="M4197 1372 c-26 -12 -43 -28 -52 -50 -17 -40 -14 -40 104 -12 112 27
125 36 68 44 -25 4 -51 14 -57 21 -15 18 -15 18 -63 -3z m93 -38 c0 -2 -9 -4
-21 -4 -11 0 -18 4 -14 10 5 8 35 3 35 -6z"/>
<path d="M0 1256 l0 -81 138 -37 c1636 -438 2799 -748 2806 -748 4 0 -17 -83
-78 -303 l-24 -88 85 3 86 3 48 180 c47 175 60 253 39 240 -9 -6 -11 2 -14 49
-1 11 -14 27 -31 37 -16 9 -210 65 -430 124 -220 59 -584 156 -810 217 -225
60 -678 181 -1005 269 -327 87 -643 172 -702 188 l-108 29 0 -82z"/>
<path d="M1014 581 c-76 -46 -88 -209 -17 -227 15 -4 31 -21 42 -45 11 -22 16
-37 11 -34 -14 9 -21 -27 -14 -72 10 -70 -4 -191 -24 -197 -9 -3 26 -3 78 -1
52 2 100 4 105 4 144 -7 465 -8 465 -2 0 5 -6 33 -14 63 -7 30 -17 72 -20 93
-4 21 -13 40 -21 43 -8 3 -12 11 -9 18 3 7 -15 35 -40 63 -39 44 -54 52 -123
72 -48 14 -90 34 -111 52 -47 41 -57 36 -22 -13 34 -46 39 -82 13 -93 -10 -4
-40 -9 -66 -10 -34 -2 -55 -9 -72 -25 -19 -18 -27 -20 -44 -10 -16 8 -20 17
-15 35 5 22 3 25 -19 25 -20 0 -25 4 -22 20 2 11 -1 20 -8 20 -6 0 6 16 27 35
21 19 42 35 46 35 5 0 14 13 21 29 8 17 24 35 36 42 13 7 23 16 23 20 0 11
-89 9 -96 -3 -4 -6 2 -8 17 -4 19 5 18 3 -6 -10 -16 -9 -39 -24 -50 -33 -13
-10 -11 -6 5 13 25 29 13 28 -25 -3 -18 -15 -19 -15 -6 2 11 14 11 17 0 17
-11 0 -11 2 1 9 8 6 19 7 25 4 5 -4 7 -3 3 2 -4 4 -3 14 3 22 16 18 -2 16 -31
-4 l-25 -17 20 24 20 23 -20 -7 c-52 -20 -59 -17 -30 14 33 35 31 37 -11 11z"/>
<path d="M1200 555 c0 -8 4 -15 10 -15 5 0 7 7 4 15 -4 8 -8 15 -10 15 -2 0
-4 -7 -4 -15z"/>
<path d="M1190 405 c-6 -7 -2 -17 12 -29 17 -15 22 -16 29 -5 12 19 11 29 -2
29 -5 0 -8 4 -5 8 8 13 -23 10 -34 -3z"/>
</g>
</svg>
